<svg xmlns="http://www.w3.org/2000/svg" viewBox="0 0 64 64"><defs><style>.cls-1{fill:#cfd8dd;}.cls-2{fill:#ebeff1;}.cls-3{fill:#74d800;}.cls-4{fill:#ff7f00;}.cls-5{fill:#ffda00;}</style></defs><title>Graph Lines</title><g id="Layer_2" data-name="Layer 2"><g id="Layer_1-2" data-name="Layer 1"><rect class="cls-1" y="4" width="64" height="60" rx="4" ry="4"/><rect class="cls-2" width="64" height="60" rx="4" ry="4"/><polygon class="cls-1" points="10 50 10 8 8 8 8 50 8 52 10 52 56 52 56 50 10 50"/><path class="cls-3" d="M22,28c-4.13,0-6.12-3.31-7.71-6-1.5-2.5-2.51-4-4.29-4V14c4.13,0,6.12,3.31,7.71,6,1.5,2.5,2.51,4,4.29,4,1.61,0,3.42-3.25,5-6.11C29.61,13.25,32.54,8,38,8c4.67,0,7.17,2.79,9.37,5.25S51.62,18,56,18v4c-6.17,0-9.19-3.37-11.62-6.08C42.15,13.42,40.75,12,38,12c-3.11,0-5.33,4-7.48,7.83C28.28,23.85,26,28,22,28Z"/><path class="cls-4" d="M10,46V42c3.07,0,6.13-2.46,9.37-5.06C23.42,33.69,28,30,34,30c5.55,0,8.56,2.75,11.22,5.18S50.5,40,56,40v4c-7,0-10.46-3.12-13.47-5.86C40,35.83,38,34,34,34c-4.58,0-8.41,3.08-12.12,6.06S14.48,46,10,46Z"/><path class="cls-5" d="M40,38c-4,0-6.41-3.05-8.56-5.75C29.61,30,28,28,26,28s-3.32,1.16-5.43,3.06C18.11,33.26,15.05,36,10,36V32c3.52,0,5.65-1.9,7.9-3.92S22.45,24,26,24c4,0,6.41,3.05,8.56,5.75C36.39,32,38,34,40,34s3.32-1.16,5.43-3.06C47.89,28.74,50.95,26,56,26v4c-3.52,0-5.65,1.9-7.9,3.92S43.55,38,40,38Z"/></g></g></svg>